# xmcd
#
# Track frame offsets:
#	150
#	15276
#	35329
#	49982
#	68548
#	85723
#	100351
#	115245
#	132065
#	149553
#	164898
#	183141
#	200047
#	213190
#
# Disc length: 3144 seconds
#
# Revision: 1
# Processed by: cddbd v1.5.2PL0 Copyright (c) Steve Scherf et al.
# Submitted via: audiograbber 1.83.01
#
DISCID=c10c460e
DTITLE=Jessica Simpson - The Very Best Of
DYEAR=2010
DGENRE=Country
TTITLE0=I Think I'm In Love With You
TTITLE1=I Wanna Love You Forever
TTITLE2=Irresistible
TTITLE3=Angels
TTITLE4=A Little Bit
TTITLE5=With You
TTITLE6=Take My Breath Away
TTITLE7=I Belong To Me
TTITLE8=You Spin Me Round (Like A Record)
TTITLE9=A Public Affair
TTITLE10=These Boots Are Made For Walkin'
TTITLE11=Remember That
TTITLE12=Come On Over
TTITLE13=Do You Know (Feat. Dolly Parton)
EXTD=
EXTT0=
EXTT1=
EXTT2=
EXTT3=
EXTT4=
EXTT5=
EXTT6=
EXTT7=
EXTT8=
EXTT9=
EXTT10=
EXTT11=
EXTT12=
EXTT13=
PLAYORDER=
